<svg xmlns="http://www.w3.org/2000/svg" xmlns:xlink="http://www.w3.org/1999/xlink" width="1000" zoomAndPan="magnify" viewBox="0 0 750 374.999991" height="500" preserveAspectRatio="xMidYMid meet" version="1.0"><path fill="#c3acd0" d="M 714.410156 171.03125 C 716.484375 139.433594 661.867188 112.097656 630.972656 109.964844 C 628.171875 109.769531 625.386719 109.800781 622.664062 110.027344 C 621.589844 81.753906 599.804688 58.292969 571.585938 56.339844 C 563.175781 55.765625 555.082031 57.160156 547.742188 60.136719 C 531.25 36.554688 504.957031 20.414062 474.453125 18.3125 C 426.691406 15.03125 384.613281 47.265625 372.933594 92.933594 C 365.507812 89.046875 357.199219 86.609375 348.347656 86.003906 C 313.398438 83.601562 283.15625 110.617188 280.792969 146.359375 C 278.449219 182.105469 304.867188 213.023438 339.832031 215.429688 C 343.902344 215.71875 347.910156 215.582031 351.8125 215.097656 C 354.171875 242.929688 376.082031 265.605469 404.175781 267.542969 C 414.601562 268.253906 424.558594 266.027344 433.257812 261.550781 C 443.347656 277.78125 460.597656 289.050781 480.808594 290.441406 C 507.875 292.304688 532.007812 275.875 541.644531 251.476562 C 549.875 258.632812 560.347656 263.261719 571.964844 264.0625 C 597.339844 265.800781 619.683594 248.738281 625.980469 224.519531 C 655.785156 225.203125 712.382812 201.769531 714.410156 171.03125 Z M 714.410156 171.03125 " fill-opacity="1" fill-rule="nonzero"/><path fill="#c3acd0" d="M 419.261719 153.152344 C 421.242188 123.066406 398.988281 97.03125 369.574219 95.003906 C 366.898438 94.824219 364.265625 94.839844 361.679688 95.050781 C 360.664062 68.125 339.90625 45.78125 313.035156 43.9375 C 305.03125 43.394531 297.332031 44.707031 290.328125 47.554688 C 274.621094 25.089844 249.582031 9.722656 220.535156 7.722656 C 175.054688 4.59375 134.988281 35.285156 123.871094 78.773438 C 116.789062 75.082031 108.890625 72.753906 100.464844 72.179688 C 67.179688 69.894531 38.386719 95.625 36.148438 129.644531 C 33.910156 163.679688 59.070312 193.117188 92.355469 195.417969 C 96.226562 195.6875 100.039062 195.566406 103.761719 195.097656 C 106.015625 221.601562 126.867188 243.1875 153.628906 245.03125 C 163.554688 245.714844 173.042969 243.597656 181.316406 239.328125 C 190.925781 254.789062 207.355469 265.515625 226.585938 266.84375 C 252.351562 268.617188 275.332031 252.972656 284.515625 229.738281 C 292.355469 236.5625 302.324219 240.964844 313.382812 241.71875 C 337.53125 243.382812 358.820312 227.121094 364.808594 204.070312 C 393.207031 204.71875 417.339844 182.40625 419.261719 153.152344 Z M 419.261719 153.152344 " fill-opacity="1" fill-rule="nonzero"/><path fill="#f7efe5" d="M 575.15625 282.773438 C 584.839844 248.921875 565.277344 213.28125 531.464844 203.160156 C 528.390625 202.238281 525.304688 201.574219 522.234375 201.121094 C 527.652344 170.09375 508.933594 139.054688 478.039062 129.828125 C 468.839844 127.074219 459.535156 126.542969 450.6875 127.9375 C 437.886719 98.105469 412.4375 73.917969 379.0625 63.933594 C 326.789062 48.308594 272.5625 72.769531 248.933594 119.511719 C 241.59375 113.414062 232.941406 108.664062 223.242188 105.761719 C 184.992188 94.324219 145.113281 116.09375 134.15625 154.394531 C 123.203125 192.695312 145.339844 233.007812 183.585938 244.441406 C 188.035156 245.773438 192.511719 246.652344 196.976562 247.105469 C 193.101562 277.980469 212.136719 308.1875 242.878906 317.382812 C 254.289062 320.800781 265.863281 320.878906 276.574219 318.199219 C 283.988281 338.410156 300.507812 355.019531 322.628906 361.628906 C 352.253906 370.480469 382.875 358.695312 399.273438 334.582031 C 406.75 344.445312 417.292969 352.128906 430.003906 355.925781 C 457.765625 364.230469 486.558594 351.296875 499.191406 326.535156 C 532.128906 334.796875 565.730469 315.691406 575.15625 282.773438 Z M 575.15625 282.773438 " fill-opacity="1" fill-rule="nonzero"/><path fill="#ffffff" d="M 636.34375 250.476562 C 634.753906 225.804688 613.691406 207.09375 589.320312 208.699219 C 587.109375 208.847656 584.945312 209.152344 582.828125 209.605469 C 579.105469 187.839844 559.679688 171.957031 537.410156 173.421875 C 530.78125 173.859375 524.59375 175.78125 519.148438 178.851562 C 503.851562 162.320312 481.640625 152.59375 457.585938 154.167969 C 419.914062 156.632812 390.304688 185.992188 385.824219 222.554688 C 379.621094 220.332031 372.875 219.316406 365.898438 219.769531 C 338.316406 221.570312 317.4375 245.667969 319.238281 273.5625 C 321.039062 301.457031 344.855469 322.632812 372.433594 320.816406 C 375.644531 320.605469 378.773438 320.089844 381.769531 319.304688 C 386.460938 340.589844 405.886719 355.851562 428.066406 354.398438 C 436.296875 353.855469 443.847656 351.085938 450.203125 346.699219 C 459.75 358.195312 474.378906 365.109375 490.324219 364.066406 C 511.671875 362.671875 528.875 347.410156 533.914062 327.535156 C 541.085938 332.207031 549.738281 334.6875 558.910156 334.097656 C 578.925781 332.78125 594.660156 317.234375 597.097656 297.839844 C 620.472656 295.269531 637.902344 274.46875 636.34375 250.476562 Z M 636.34375 250.476562 " fill-opacity="1" fill-rule="nonzero"/><path fill="#ffffff" d="M 109.058594 222.417969 C 110.617188 195.023438 133.445312 174.101562 160.03125 175.691406 C 162.449219 175.84375 164.8125 176.160156 167.109375 176.660156 C 171.015625 152.472656 192.074219 134.714844 216.359375 136.164062 C 223.589844 136.605469 230.351562 138.691406 236.296875 142.066406 C 252.851562 123.609375 276.996094 112.644531 303.246094 114.214844 C 344.339844 116.667969 376.824219 149.039062 381.953125 189.578125 C 388.699219 187.066406 396.039062 185.886719 403.664062 186.339844 C 433.742188 188.140625 456.675781 214.71875 454.90625 245.699219 C 453.136719 276.679688 427.324219 300.335938 397.246094 298.550781 C 393.738281 298.339844 390.332031 297.792969 387.066406 296.949219 C 382.101562 320.605469 361.027344 337.683594 336.851562 336.246094 C 327.878906 335.71875 319.617188 332.691406 312.671875 327.882812 C 302.355469 340.726562 286.4375 348.5 269.054688 347.457031 C 245.769531 346.0625 226.917969 329.273438 221.273438 307.234375 C 213.496094 312.484375 204.070312 315.296875 194.085938 314.691406 C 172.269531 313.390625 155.007812 296.238281 152.191406 274.726562 C 126.683594 272.003906 107.542969 249.054688 109.058594 222.417969 Z M 109.058594 222.417969 " fill-opacity="1" fill-rule="nonzero"/></svg>